<svg xmlns="http://www.w3.org/2000/svg" xmlns:xlink="http://www.w3.org/1999/xlink" viewBox="0 0 950.65 831.55"><defs><style>.cls-1{fill:url(#linear-gradient);}.cls-2{fill:url(#linear-gradient-2);}.cls-3{fill:url(#linear-gradient-3);}.cls-4{fill:url(#linear-gradient-4);}.cls-5{fill:url(#linear-gradient-5);}.cls-6{fill:url(#linear-gradient-6);}.cls-7{fill:url(#linear-gradient-7);}.cls-8{fill:url(#linear-gradient-8);}.cls-9{fill:url(#linear-gradient-9);}.cls-10{fill:url(#linear-gradient-10);}.cls-11{fill:url(#linear-gradient-11);}.cls-12{fill:url(#linear-gradient-12);}.cls-13{fill:url(#linear-gradient-13);}.cls-14{fill:url(#linear-gradient-14);}.cls-15{fill:url(#linear-gradient-15);}.cls-16{fill:url(#linear-gradient-16);}.cls-17{fill:url(#linear-gradient-17);}.cls-18{fill:url(#linear-gradient-18);}.cls-19{fill:url(#linear-gradient-19);}.cls-20{fill:url(#linear-gradient-20);}.cls-21{fill:url(#linear-gradient-21);}.cls-22{fill:url(#linear-gradient-22);}.cls-23{fill:url(#linear-gradient-23);}.cls-24{fill:url(#linear-gradient-24);}.cls-25{fill:url(#linear-gradient-25);}.cls-26{fill:url(#linear-gradient-26);}.cls-27{fill:url(#linear-gradient-27);}.cls-28{fill:url(#linear-gradient-28);}.cls-29{fill:url(#linear-gradient-29);}.cls-30{fill:url(#linear-gradient-30);}.cls-31{fill:url(#linear-gradient-31);}.cls-32{fill:url(#linear-gradient-32);}.cls-33{fill:url(#linear-gradient-33);}.cls-34{fill:url(#linear-gradient-34);}.cls-35{fill:url(#linear-gradient-35);}.cls-36{fill:url(#linear-gradient-36);}.cls-37{fill:url(#linear-gradient-37);}.cls-38{fill:url(#linear-gradient-38);}.cls-39{fill:url(#linear-gradient-39);}.cls-40{fill:url(#linear-gradient-40);}.cls-41{fill:url(#linear-gradient-41);}.cls-42{fill:url(#linear-gradient-42);}.cls-43{fill:url(#linear-gradient-43);}.cls-44{fill:url(#linear-gradient-44);}.cls-45{fill:url(#linear-gradient-45);}.cls-46{fill:url(#linear-gradient-46);}.cls-47{fill:url(#linear-gradient-47);}.cls-48{fill:url(#linear-gradient-48);}.cls-49{fill:url(#linear-gradient-49);}.cls-50{fill:url(#linear-gradient-50);}.cls-51{fill:url(#linear-gradient-51);}.cls-52{fill:url(#linear-gradient-52);}.cls-53{fill:url(#linear-gradient-53);}.cls-54{fill:url(#linear-gradient-54);}.cls-55{fill:url(#linear-gradient-55);}.cls-56{fill:url(#linear-gradient-56);}.cls-57{fill:url(#linear-gradient-57);}.cls-58{fill:url(#linear-gradient-58);}.cls-59{fill:url(#linear-gradient-59);}.cls-60{fill:url(#linear-gradient-60);}.cls-61{fill:url(#linear-gradient-61);}.cls-62{fill:url(#linear-gradient-62);}.cls-63{fill:url(#linear-gradient-63);}.cls-64{fill:url(#linear-gradient-64);}</style><linearGradient id="linear-gradient" x1="692.4" y1="35.57" x2="769.44" y2="35.57" gradientUnits="userSpaceOnUse"><stop offset="0" stop-color="#a57d24"/><stop offset="0.21" stop-color="#d8be62"/><stop offset="0.33" stop-color="#f1dd80"/><stop offset="0.52" stop-color="#fbf2a8"/><stop offset="0.73" stop-color="#f1dd80"/><stop offset="1" stop-color="#a57d24"/></linearGradient><linearGradient id="linear-gradient-2" x1="575.55" y1="742.94" x2="642.23" y2="742.94" xlink:href="#linear-gradient"/><linearGradient id="linear-gradient-3" x1="575.33" y1="798.44" x2="693.16" y2="798.44" xlink:href="#linear-gradient"/><linearGradient id="linear-gradient-4" x1="652.74" y1="711.06" x2="703.63" y2="711.06" xlink:href="#linear-gradient"/><linearGradient id="linear-gradient-5" x1="653.28" y1="760.42" x2="767.71" y2="760.42" xlink:href="#linear-gradient"/><linearGradient id="linear-gradient-6" x1="716.57" y1="668.75" x2="757.83" y2="668.75" xlink:href="#linear-gradient"/><linearGradient id="linear-gradient-7" x1="721.21" y1="710.36" x2="830.24" y2="710.36" xlink:href="#linear-gradient"/><linearGradient id="linear-gradient-8" x1="767.16" y1="617.69" x2="803.9" y2="617.69" xlink:href="#linear-gradient"/><linearGradient id="linear-gradient-9" x1="778.68" y1="650.18" x2="880.27" y2="650.18" xlink:href="#linear-gradient"/><linearGradient id="linear-gradient-10" x1="805.1" y1="559.6" x2="841.07" y2="559.6" xlink:href="#linear-gradient"/><linearGradient id="linear-gradient-11" x1="825.27" y1="581.76" x2="917.34" y2="581.76" xlink:href="#linear-gradient"/><linearGradient id="linear-gradient-12" x1="829.89" y1="496.17" x2="868.88" y2="496.17" xlink:href="#linear-gradient"/><linearGradient id="linear-gradient-13" x1="860.54" y1="507.55" x2="940.95" y2="507.55" xlink:href="#linear-gradient"/><linearGradient id="linear-gradient-14" x1="840.39" y1="429.12" x2="887.29" y2="429.12" xlink:href="#linear-gradient"/><linearGradient id="linear-gradient-15" x1="884.05" y1="430.32" x2="950.65" y2="430.32" xlink:href="#linear-gradient"/><linearGradient id="linear-gradient-16" x1="837.58" y1="360.17" x2="896.5" y2="360.17" xlink:href="#linear-gradient"/><linearGradient id="linear-gradient-17" x1="895.37" y1="351.54" x2="947.15" y2="351.54" xlink:href="#linear-gradient"/><linearGradient id="linear-gradient-18" x1="823.4" y1="290.88" x2="895.04" y2="290.88" xlink:href="#linear-gradient"/><linearGradient id="linear-gradient-19" x1="892.95" y1="272.83" x2="932.99" y2="272.83" xlink:href="#linear-gradient"/><linearGradient id="linear-gradient-20" x1="797.43" y1="222.32" x2="880.61" y2="222.32" xlink:href="#linear-gradient"/><linearGradient id="linear-gradient-21" x1="871.39" y1="196.17" x2="907.59" y2="196.17" xlink:href="#linear-gradient"/><linearGradient id="linear-gradient-22" x1="759.29" y1="156.81" x2="852.65" y2="156.81" xlink:href="#linear-gradient"/><linearGradient id="linear-gradient-23" x1="830.67" y1="123.55" x2="869.96" y2="123.55" xlink:href="#linear-gradient"/><linearGradient id="linear-gradient-24" x1="708.58" y1="96.8" x2="810.7" y2="96.8" xlink:href="#linear-gradient"/><linearGradient id="linear-gradient-25" x1="770.49" y1="56.96" x2="819.93" y2="56.96" xlink:href="#linear-gradient"/><linearGradient id="linear-gradient-26" x1="467.28" y1="423.59" x2="896.97" y2="423.59" xlink:href="#linear-gradient"/><linearGradient id="linear-gradient-27" x1="181.21" y1="35.57" x2="258.25" y2="35.57" xlink:href="#linear-gradient"/><linearGradient id="linear-gradient-28" x1="308.42" y1="742.94" x2="375.1" y2="742.94" xlink:href="#linear-gradient"/><linearGradient id="linear-gradient-29" x1="257.49" y1="798.44" x2="375.32" y2="798.44" xlink:href="#linear-gradient"/><linearGradient id="linear-gradient-30" x1="247.02" y1="711.06" x2="297.91" y2="711.06" xlink:href="#linear-gradient"/><linearGradient id="linear-gradient-31" x1="182.94" y1="760.42" x2="297.37" y2="760.42" xlink:href="#linear-gradient"/><linearGradient id="linear-gradient-32" x1="192.82" y1="668.75" x2="234.08" y2="668.75" xlink:href="#linear-gradient"/><linearGradient id="linear-gradient-33" x1="120.41" y1="710.36" x2="229.44" y2="710.36" xlink:href="#linear-gradient"/><linearGradient id="linear-gradient-34" x1="146.75" y1="617.69" x2="183.49" y2="617.69" xlink:href="#linear-gradient"/><linearGradient id="linear-gradient-35" x1="70.38" y1="650.18" x2="171.97" y2="650.18" xlink:href="#linear-gradient"/><linearGradient id="linear-gradient-36" x1="109.58" y1="559.6" x2="145.55" y2="559.6" xlink:href="#linear-gradient"/><linearGradient id="linear-gradient-37" x1="33.31" y1="581.76" x2="125.38" y2="581.76" xlink:href="#linear-gradient"/><linearGradient id="linear-gradient-38" x1="81.77" y1="496.17" x2="120.76" y2="496.17" xlink:href="#linear-gradient"/><linearGradient id="linear-gradient-39" x1="9.7" y1="507.55" x2="90.11" y2="507.55" xlink:href="#linear-gradient"/><linearGradient id="linear-gradient-40" x1="63.36" y1="429.12" x2="110.26" y2="429.12" xlink:href="#linear-gradient"/><linearGradient id="linear-gradient-41" x1="0" y1="430.32" x2="66.6" y2="430.32" xlink:href="#linear-gradient"/><linearGradient id="linear-gradient-42" x1="54.15" y1="360.17" x2="113.07" y2="360.17" xlink:href="#linear-gradient"/><linearGradient id="linear-gradient-43" x1="3.5" y1="351.54" x2="55.28" y2="351.54" xlink:href="#linear-gradient"/><linearGradient id="linear-gradient-44" x1="55.61" y1="290.88" x2="127.25" y2="290.88" xlink:href="#linear-gradient"/><linearGradient id="linear-gradient-45" x1="17.66" y1="272.83" x2="57.7" y2="272.83" xlink:href="#linear-gradient"/><linearGradient id="linear-gradient-46" x1="70.04" y1="222.32" x2="153.22" y2="222.32" xlink:href="#linear-gradient"/><linearGradient id="linear-gradient-47" x1="43.06" y1="196.17" x2="79.25" y2="196.17" xlink:href="#linear-gradient"/><linearGradient id="linear-gradient-48" x1="98" y1="156.81" x2="191.36" y2="156.81" xlink:href="#linear-gradient"/><linearGradient id="linear-gradient-49" x1="80.69" y1="123.55" x2="119.98" y2="123.55" xlink:href="#linear-gradient"/><linearGradient id="linear-gradient-50" x1="139.95" y1="96.8" x2="242.07" y2="96.8" xlink:href="#linear-gradient"/><linearGradient id="linear-gradient-51" x1="130.72" y1="56.96" x2="180.16" y2="56.96" xlink:href="#linear-gradient"/><linearGradient id="linear-gradient-52" x1="53.68" y1="423.59" x2="483.37" y2="423.59" xlink:href="#linear-gradient"/><linearGradient id="linear-gradient-53" x1="428.46" y1="798.4" x2="518.65" y2="798.4" xlink:href="#linear-gradient"/><linearGradient id="linear-gradient-54" x1="332.21" y1="271.86" x2="618.44" y2="271.86" xlink:href="#linear-gradient"/><linearGradient id="linear-gradient-55" x1="475.32" y1="411.08" x2="475.32" y2="131.9" xlink:href="#linear-gradient"/><linearGradient id="linear-gradient-56" x1="225.11" y1="505.92" x2="272.04" y2="505.92" xlink:href="#linear-gradient"/><linearGradient id="linear-gradient-57" x1="285.32" y1="505.92" x2="325.52" y2="505.92" xlink:href="#linear-gradient"/><linearGradient id="linear-gradient-58" x1="330.87" y1="505.92" x2="386.6" y2="505.92" xlink:href="#linear-gradient"/><linearGradient id="linear-gradient-59" x1="416.49" y1="505.92" x2="461.4" y2="505.92" xlink:href="#linear-gradient"/><linearGradient id="linear-gradient-60" x1="460.9" y1="505.92" x2="516.63" y2="505.92" xlink:href="#linear-gradient"/><linearGradient id="linear-gradient-61" x1="525.82" y1="505.92" x2="564.13" y2="505.92" xlink:href="#linear-gradient"/><linearGradient id="linear-gradient-62" x1="567.43" y1="505.92" x2="623.16" y2="505.92" xlink:href="#linear-gradient"/><linearGradient id="linear-gradient-63" x1="627.79" y1="505.92" x2="678.24" y2="505.92" xlink:href="#linear-gradient"/><linearGradient id="linear-gradient-64" x1="690.85" y1="505.92" x2="731.05" y2="505.92" xlink:href="#linear-gradient"/></defs><title>Asset 3</title><g id="Layer_2" data-name="Layer 2"><g id="objects"><path class="cls-1" d="M744.34,20.86c21.27,19.4,25.1,49.85,25.1,49.85s-30.67-1-51.94-20.42S692.4.44,692.4.44,723.07,1.46,744.34,20.86Z"/><path class="cls-2" d="M594.75,735.79c-18.31,23.49-19.42,51.24-19.17,51.33-.07.35,38.43-10.42,55.7-36.33,17.28-25.59,8.87-52.11,9.12-52C640.3,699,613,712.51,594.75,735.79Z"/><path class="cls-3" d="M621.72,817.15c-33.8-5.74-46.4-31.29-46.39-31.06.39.12,36.6-10.33,67.8-6.66,31.51,3.84,50,23.41,50,23.62C693.6,803.15,655.87,823,621.72,817.15Z"/><path class="cls-4" d="M661.55,706.44c-12.59,25.76-8.07,52.7-7.83,52.75,0,.36,33.8-16.44,45.2-44.41,11.43-27.65-1.58-51.89-1.34-51.86C697.52,663.19,674.14,680.89,661.55,706.44Z"/><path class="cls-5" d="M702.81,780.48a64.37,64.37,0,0,1-49.53-22.24c.37.06,32.11-16.06,62.39-17.78,30.58-1.61,52,14.17,52,14.38C768.13,754.87,736,780.46,702.81,780.48Z"/><path class="cls-6" d="M719.22,666.74c-7.14,27.09,2.37,52.36,2.59,52.37,0,.35,29-21.62,34.79-50.69,5.86-28.75-11.07-50-10.85-50C745.73,618.65,726.4,639.87,719.22,666.74Z"/><path class="cls-7" d="M772.65,731.37a63.18,63.18,0,0,1-51.44-13.11c.34,0,27.43-21,56.25-27.83,29.11-6.8,52.73,4.8,52.78,5C830.63,695.39,804.33,725.72,772.65,731.37Z"/><path class="cls-8" d="M767.36,618.34c-2,27.53,11.85,50.37,12,50.35.06.34,24-26,24.48-55.22.59-29-19.59-46.74-19.39-46.77C784.52,567,769.42,591,767.36,618.34Z"/><path class="cls-9" d="M830.74,671.82A62.15,62.15,0,0,1,778.68,668c.31-.05,22.59-25.05,49.39-36.74,27.06-11.68,52.13-4.54,52.2-4.35C880.63,626.78,860.35,660.86,830.74,671.82Z"/><path class="cls-10" d="M805.55,562.86c2.84,27.17,20.37,46.95,20.56,46.89.09.33,18.77-29.43,14.26-58.06-4.38-28.37-27.1-42.17-26.91-42.24C813.52,509.71,802.81,535.89,805.55,562.86Z"/><path class="cls-11" d="M876.65,603.81a61.51,61.51,0,0,1-51.38,5.37c.28-.1,17.57-28.3,41.77-44.44,24.44-16.17,50.19-13.64,50.29-13.46C917.66,551.13,903.6,588,876.65,603.81Z"/><path class="cls-12" d="M833.41,502c7.35,26.06,27.88,42.25,28,42.17.15.31,13.37-32,4.18-59.3-9-27-33.58-36.52-33.41-36.61C832.33,448.46,826.18,476.08,833.41,502Z"/><path class="cls-13" d="M909.89,529.38a61.34,61.34,0,0,1-49.35,14.34c.25-.14,12.37-30.74,33.38-50.86,21.24-20.19,46.9-22.32,47-22.17C941.24,470.5,933.6,509.13,909.89,529.38Z"/><path class="cls-14" d="M850.52,437.29c11.54,24.28,34.34,36.48,34.49,36.37.19.29,7.76-33.8-5.78-59-13.34-25-39-30-38.84-30.07C840.54,384.81,839.14,413.16,850.52,437.29Z"/><path class="cls-15" d="M930,450.53a61.55,61.55,0,0,1-46,22.9c.21-.18,7-32.35,24.23-55.94,17.44-23.68,42.19-30.41,42.34-30.27C950.89,387,949.87,426.42,930,450.53Z"/><path class="cls-16" d="M856.48,370.51c15.38,21.9,39.74,29.81,39.87,29.68.23.25,1.95-34.71-15.6-57.22-17.33-22.32-43.3-22.68-43.17-22.82C837.78,320.35,841.29,348.73,856.48,370.51Z"/><path class="cls-17" d="M936.53,369.29a61.94,61.94,0,0,1-41.16,30.84c.18-.21,1.46-33.14,14.29-59.59,13-26.57,36.06-37.7,36.23-37.59C946.13,302.67,951.92,341.94,936.53,369.29Z"/><path class="cls-18" d="M850.87,303.28c18.87,19,44,22.42,44.16,22.28.28.22-4.06-34.74-25.27-54-21-19.13-46.48-14.87-46.36-15C823.64,256.68,832.23,284.39,850.87,303.28Z"/><path class="cls-19" d="M929,287.7c-10.09,29.68-35.12,37.88-34.92,38,.14-.23-4.26-33.1,3.56-61.74,8-28.8,28.46-44,28.66-44C926.47,219.68,939.29,257.79,929,287.7Z"/><path class="cls-20" d="M833.3,237.27c22,15.63,47.21,14.52,47.31,14.36.32.17-10.27-33.91-34.78-49.49-24.21-15.46-48.5-6.72-48.4-6.89C797.72,195.39,811.57,221.72,833.3,237.27Z"/><path class="cls-21" d="M906.9,207.77c-4.38,31.45-27.45,44.08-27.22,44.15.1-.25-10.16-32.24-8-62.34,2.31-30.27,19.36-49.21,19.59-49.15C891.46,140.1,911.49,176.07,906.9,207.77Z"/><path class="cls-22" d="M803.35,174.17c24.73,11.86,49.22,6.26,49.29,6.09.38.13-16.67-32.22-44.1-43.68A59.33,59.33,0,0,0,759.29,138C759.63,138.1,778.92,162.35,803.35,174.17Z"/><path class="cls-23" d="M869.82,131.57c2,32.38-18.29,49.11-18,49.15.07-.27-16.22-30.56-20.34-61.31-4-30.93,8.75-53,9-53C840.58,66.05,868,98.91,869.82,131.57Z"/><path class="cls-24" d="M760.61,115.66c27.08,7.76,50-2.16,50.09-2.34.42.07-23.29-29.65-53.25-36.65-29.59-7-48.93,9.91-48.87,9.72C709,86.44,733.86,107.88,760.61,115.66Z"/><path class="cls-25" d="M817.26,61.13c9,32.42-7.6,52.8-7.31,52.8,0-.27-22.46-28.05-33.53-58.57C765.45,24.65,773,0,773.28,0,773.37-.36,808.45,28.41,817.26,61.13Z"/><path class="cls-26" d="M467.28,795.63l.54-5.94a366.59,366.59,0,0,0,145.88-16.3,386.32,386.32,0,0,0,127.53-69.83c79.44-65.28,130.67-158.43,144.25-262.3,11.12-85.05,5.42-160.84-17-225.27-24-69.18-66.82-123.32-127.19-160.9L744.48,50C806,88.35,849.67,143.53,874.16,214c22.68,65.32,28.48,142,17.24,228C877.62,547.41,825.63,641.92,745,708.17a392.31,392.31,0,0,1-129.5,70.9A372.47,372.47,0,0,1,467.28,795.63Z"/><path class="cls-27" d="M206.31,20.86c-21.27,19.4-25.1,49.85-25.1,49.85s30.67-1,51.94-20.42S258.25.44,258.25.44,227.58,1.46,206.31,20.86Z"/><path class="cls-28" d="M355.9,735.79c18.31,23.49,19.42,51.24,19.17,51.33.07.35-38.43-10.42-55.7-36.33-17.28-25.59-8.87-52.11-9.12-52C310.35,699,337.61,712.51,355.9,735.79Z"/><path class="cls-29" d="M328.93,817.15c33.8-5.74,46.4-31.29,46.39-31.06-.4.12-36.6-10.33-67.8-6.66-31.51,3.84-50,23.41-50,23.62C257.05,803.15,294.78,823,328.93,817.15Z"/><path class="cls-30" d="M289.1,706.44c12.59,25.76,8.07,52.7,7.83,52.75,0,.36-33.8-16.44-45.2-44.41-11.43-27.65,1.58-51.89,1.34-51.86C253.12,663.19,276.51,680.89,289.1,706.44Z"/><path class="cls-31" d="M247.84,780.48a64.37,64.37,0,0,0,49.53-22.24c-.37.06-32.11-16.06-62.39-17.78-30.58-1.61-52,14.17-52,14.38C182.52,754.87,214.64,780.46,247.84,780.48Z"/><path class="cls-32" d="M231.43,666.74c7.14,27.09-2.37,52.36-2.59,52.37,0,.35-29-21.62-34.79-50.69-5.86-28.75,11.07-50,10.85-50C204.92,618.65,224.25,639.87,231.43,666.74Z"/><path class="cls-33" d="M178,731.37a63.18,63.18,0,0,0,51.44-13.11c-.34,0-27.43-21-56.25-27.83-29.11-6.8-52.73,4.8-52.78,5C120,695.39,146.32,725.72,178,731.37Z"/><path class="cls-34" d="M183.29,618.34c2,27.53-11.85,50.37-12,50.35-.06.34-24-26-24.48-55.22-.59-29,19.59-46.74,19.39-46.77C166.12,567,181.23,591,183.29,618.34Z"/><path class="cls-35" d="M119.91,671.82A62.15,62.15,0,0,0,172,668c-.31-.05-22.59-25.05-49.39-36.74-27.06-11.68-52.13-4.54-52.2-4.35C70,626.78,90.3,660.86,119.91,671.82Z"/><path class="cls-36" d="M145.1,562.86c-2.84,27.17-20.37,46.95-20.56,46.89-.1.33-18.77-29.43-14.26-58.06,4.38-28.37,27.1-42.17,26.91-42.24C137.13,509.71,147.84,535.89,145.1,562.86Z"/><path class="cls-37" d="M74,603.81a61.51,61.51,0,0,0,51.38,5.37c-.28-.1-17.57-28.3-41.77-44.44-24.44-16.17-50.19-13.64-50.29-13.46C33,551.13,47.05,588,74,603.81Z"/><path class="cls-38" d="M117.24,502c-7.35,26.06-27.88,42.25-28,42.17-.15.31-13.37-32-4.18-59.3,9-27,33.58-36.52,33.41-36.61C118.32,448.46,124.47,476.08,117.24,502Z"/><path class="cls-39" d="M40.76,529.38a61.34,61.34,0,0,0,49.35,14.34c-.25-.14-12.37-30.74-33.38-50.86-21.24-20.19-46.9-22.32-47-22.17C9.41,470.5,17.05,509.13,40.76,529.38Z"/><path class="cls-40" d="M100.13,437.29c-11.54,24.28-34.34,36.48-34.49,36.37-.19.29-7.76-33.8,5.78-59,13.34-25,39-30,38.84-30.07C110.11,384.81,111.51,413.16,100.13,437.29Z"/><path class="cls-41" d="M20.64,450.53a61.55,61.55,0,0,0,46,22.9c-.21-.18-7-32.35-24.23-55.94C24.93,393.81.18,387.08,0,387.22-.24,387,.78,426.42,20.64,450.53Z"/><path class="cls-42" d="M94.17,370.51c-15.38,21.9-39.74,29.81-39.87,29.68-.23.25-1.95-34.71,15.6-57.22,17.33-22.32,43.3-22.68,43.17-22.82C112.87,320.35,109.36,348.73,94.17,370.51Z"/><path class="cls-43" d="M14.12,369.29a61.94,61.94,0,0,0,41.16,30.84C55.1,399.92,53.82,367,41,340.54,28,314,4.93,302.84,4.76,303,4.52,302.67-1.27,341.94,14.12,369.29Z"/><path class="cls-44" d="M99.78,303.28c-18.87,19-44.05,22.42-44.16,22.28-.28.22,4.06-34.74,25.27-54,21-19.13,46.48-14.87,46.36-15C127,256.68,118.42,284.39,99.78,303.28Z"/><path class="cls-45" d="M21.67,287.7c10.09,29.68,35.12,37.88,34.92,38-.14-.23,4.26-33.1-3.56-61.74-8-28.8-28.46-44-28.66-44C24.18,219.68,11.36,257.79,21.67,287.7Z"/><path class="cls-46" d="M117.35,237.27c-22,15.63-47.21,14.52-47.31,14.36-.32.17,10.27-33.91,34.78-49.49,24.21-15.46,48.5-6.72,48.4-6.89C152.93,195.39,139.08,221.72,117.35,237.27Z"/><path class="cls-47" d="M43.75,207.77C48.13,239.22,71.2,251.85,71,251.92c-.1-.25,10.16-32.24,8-62.34-2.31-30.27-19.36-49.21-19.59-49.15C59.19,140.1,39.16,176.07,43.75,207.77Z"/><path class="cls-48" d="M147.3,174.17C122.57,186,98.08,180.43,98,180.26c-.38.13,16.67-32.22,44.1-43.68A59.33,59.33,0,0,1,191.36,138C191,138.1,171.73,162.35,147.3,174.17Z"/><path class="cls-49" d="M80.83,131.57c-2,32.38,18.29,49.11,18,49.15-.07-.27,16.22-30.56,20.34-61.31,4-30.93-8.75-53-9-53C110.07,66.05,82.61,98.91,80.83,131.57Z"/><path class="cls-50" d="M190,115.66c-27.08,7.76-50-2.16-50.09-2.34-.42.07,23.29-29.65,53.25-36.65,29.59-7,48.93,9.91,48.87,9.72C241.68,86.44,216.79,107.88,190,115.66Z"/><path class="cls-51" d="M133.39,61.13c-9,32.42,7.6,52.8,7.31,52.8,0-.27,22.46-28.05,33.53-58.57C185.2,24.65,177.65,0,177.37,0,177.28-.36,142.2,28.41,133.39,61.13Z"/><path class="cls-52" d="M483.37,795.63l-.54-5.94A366.59,366.59,0,0,1,337,773.39a386.32,386.32,0,0,1-127.53-69.83C130,638.28,78.75,545.13,65.17,441.26c-11.12-85.05-5.42-160.84,17-225.27,24-69.18,66.82-123.32,127.19-160.9L206.17,50C144.61,88.35,101,143.53,76.49,214,53.81,279.35,48,356.06,59.25,442,73,547.41,125,641.92,205.63,708.17a392.31,392.31,0,0,0,129.5,70.9A372.47,372.47,0,0,0,483.37,795.63Z"/><polygon class="cls-53" points="473.56 765.24 428.46 798.39 473.56 831.55 518.65 798.39 473.56 765.24"/><path class="cls-54" d="M618.44,239.73l-105.52-5.24-37.6-98.74-37.59,98.74-105.52,5.24L414.5,306,386.88,408l88.44-57.79L563.77,408,536.15,306Zm-59.19,162-.1-.06L475.32,288.83v58.08h0L391.5,401.68l83.82-112.85-57.73,16.22,0-.07-77.93-62.75,135.64,46.6-35.71-51.69h.05l35.66-93.69h0V288.83L511,237.14l100.08,5-.15.12-135.65,46.6,57.74,16.22Z"/><path class="cls-55" d="M566,411.08l-90.72-59.26-90.71,59.26L413,306.5l-84.4-68,108.22-5.37L475.32,131.9l38.56,101.27,108.22,5.37-84.4,68Zm-4.52-6.21h0Zm0,0-16.82-62.11Zm-172.37,0,86.18-56.3,83.22,54.37-.34-.23L476.69,293v54.68Zm-24.77-141,51.69,41.62-.24.86-25.7,94.89,81.71-110L415.66,307l.4-1.53ZM474,293,397.17,396.33,474,346.17Zm4.85-1.74,77.26,104-24.13-89.07Zm1.11-2.53L534.18,304l.41,1.54.7-.57,76.35-61.48-.23.08Zm-133.3-42.64L418,303.52l52.75-14.82Zm-7.07-5.33.57.2,131.71,45.25-34.74-50.29Zm172.19-2.19-32.92,47.64,125.31-43.05Zm-35.05-95.35V284.44l33.66-48.71,1.6.08-.31-.83ZM441.18,237,474,284.44V150.89Zm173.59,3.93-2.92,2.36,2.93-2.36Z"/><path class="cls-56" d="M225.11,531.05l5.18-5.93A26.55,26.55,0,0,0,249,533.54c8.92,0,14.21-4.45,14.21-11,0-6.94-4.93-9.15-11.34-11.95l-9.76-4.31c-6.33-2.7-13.76-7.5-13.76-17.49,0-10.38,9.05-18,21.39-18a28,28,0,0,1,20,8.42l-4.59,5.56a21.71,21.71,0,0,0-15.42-6.37c-7.62,0-12.66,3.84-12.66,9.92,0,6.54,5.92,9,11.24,11.24l9.69,4.19c7.86,3.38,14,8.06,14,18.17,0,10.73-8.87,19.31-23.16,19.31A32.56,32.56,0,0,1,225.11,531.05Z"/><path class="cls-57" d="M285.32,472h39.17v7.31H294v21.3h25.74v7.31H294v24.71h31.55v7.31h-40.2Z"/><path class="cls-58" d="M353.86,472h9.75l23,67.94h-9.16l-11.85-37.95c-2.44-7.59-4.62-15.05-6.8-22.89h-.42c-2.1,7.88-4.28,15.3-6.72,22.89l-12,37.95h-8.8ZM343,512.3h31.29v6.9H343Z"/><path class="cls-59" d="M416.49,472H435.9c15.23,0,25.5,5.12,25.5,20,0,14.31-10.22,21-25.09,21H425.14v26.95h-8.65Zm18.73,34c11.89,0,17.55-4.31,17.55-14s-6-13-18-13h-9.67v27Z"/><path class="cls-60" d="M483.89,472h9.76l23,67.94h-9.16l-11.85-37.95c-2.44-7.59-4.62-15.05-6.8-22.89h-.41c-2.11,7.88-4.28,15.3-6.73,22.89l-12,37.95h-8.8ZM473,512.3h31.29v6.9H473Z"/><path class="cls-61" d="M525.82,472h8.65v60.63h29.66v7.31H525.82Z"/><path class="cls-62" d="M590.42,472h9.76l23,67.94H614l-11.85-37.95c-2.44-7.59-4.62-15.05-6.8-22.89h-.41c-2.1,7.88-4.28,15.3-6.73,22.89l-12,37.95h-8.8Zm-10.9,40.35h31.29v6.9H579.52Z"/><path class="cls-63" d="M627.79,506c0-21.92,12.91-35.28,30.15-35.28a25.33,25.33,0,0,1,18.69,8.38l-4.74,5.63c-3.57-3.81-8.07-6.4-13.8-6.4-12.84,0-21.37,10.51-21.37,27.44s8.15,27.79,21,27.79c6.49,0,11.42-2.83,15.75-7.63l4.74,5.42c-5.37,6.23-12,9.81-20.85,9.81C640.47,541.14,627.79,528.05,627.79,506Z"/><path class="cls-64" d="M690.85,472H730v7.31H699.5v21.3h25.74v7.31H699.5v24.71h31.55v7.31h-40.2Z"/></g></g></svg>